<svg width="185" height="277" viewBox="0 0 185 277" fill="none" xmlns="http://www.w3.org/2000/svg">
<rect width="185" height="277" fill="#2E2D2D"/>
<path d="M115.625 206.664V189.08C119.094 187.119 129.014 173.65 130.055 163.126C132.784 162.888 137.07 160.031 138.334 148.751C139.012 142.693 136.314 139.29 134.68 138.218C134.68 138.218 138.75 129.399 138.75 118.752C138.75 97.4051 131.404 79.188 115.625 79.188C115.625 79.188 110.144 66 92.5 66C59.8013 66 46.25 89.9231 46.25 118.752C46.25 128.459 50.32 138.218 50.32 138.218C48.6858 139.29 45.9879 142.702 46.6663 148.751C47.9304 160.031 52.2163 162.888 54.945 163.126C55.9856 173.65 65.9063 187.119 69.375 189.08V206.664C61.6667 233.04 0 215.456 0 277H185C185 215.456 123.333 233.04 115.625 206.664Z" fill="#414242"/>
<path d="M90.3736 43.7955V43.6037C90.3949 41.5689 90.608 39.9496 91.0128 38.7457C91.4176 37.5419 91.9929 36.5671 92.7386 35.8214C93.4844 35.0756 94.3793 34.3885 95.4233 33.7599C96.0518 33.3764 96.6165 32.9236 97.1172 32.4016C97.6179 31.869 98.0121 31.2564 98.2997 30.5639C98.598 29.8714 98.7472 29.1044 98.7472 28.2628C98.7472 27.2187 98.5021 26.3132 98.0121 25.5462C97.522 24.7791 96.8668 24.1879 96.0465 23.7724C95.2262 23.3569 94.3153 23.1491 93.3139 23.1491C92.4403 23.1491 91.5987 23.3303 90.7891 23.6925C89.9794 24.0547 89.3029 24.6246 88.7596 25.4023C88.2163 26.18 87.902 27.1974 87.8168 28.4545H83.7898C83.875 26.6435 84.3438 25.0934 85.196 23.8043C86.0589 22.5153 87.1935 21.5298 88.5998 20.848C90.0167 20.1662 91.5881 19.8253 93.3139 19.8253C95.1889 19.8253 96.8189 20.1982 98.2038 20.9439C99.5994 21.6896 100.675 22.7124 101.432 24.0121C102.199 25.3118 102.582 26.7926 102.582 28.4545C102.582 29.6264 102.401 30.6864 102.039 31.6346C101.688 32.5827 101.176 33.4297 100.505 34.1754C99.8445 34.9212 99.0455 35.5817 98.108 36.157C97.1705 36.7429 96.4194 37.3608 95.8548 38.0107C95.2901 38.6499 94.88 39.4116 94.6243 40.2958C94.3686 41.18 94.2301 42.2827 94.2088 43.6037V43.7955H90.3736ZM92.419 53.2557C91.6307 53.2557 90.9542 52.9734 90.3896 52.4087C89.8249 51.8441 89.5426 51.1676 89.5426 50.3793C89.5426 49.5909 89.8249 48.9144 90.3896 48.3498C90.9542 47.7852 91.6307 47.5028 92.419 47.5028C93.2074 47.5028 93.8839 47.7852 94.4485 48.3498C95.0131 48.9144 95.2955 49.5909 95.2955 50.3793C95.2955 50.9013 95.1623 51.3807 94.896 51.8175C94.6403 52.2543 94.294 52.6058 93.8572 52.8722C93.4311 53.1278 92.9517 53.2557 92.419 53.2557Z" fill="#414242"/>
<path d="M90.3736 43.7955V43.6037C90.3949 41.5689 90.608 39.9496 91.0128 38.7457C91.4176 37.5419 91.9929 36.5671 92.7386 35.8214C93.4844 35.0756 94.3793 34.3885 95.4233 33.7599C96.0518 33.3764 96.6165 32.9236 97.1172 32.4016C97.6179 31.869 98.0121 31.2564 98.2997 30.5639C98.598 29.8714 98.7472 29.1044 98.7472 28.2628C98.7472 27.2187 98.5021 26.3132 98.0121 25.5462C97.522 24.7791 96.8668 24.1879 96.0465 23.7724C95.2262 23.3569 94.3153 23.1491 93.3139 23.1491C92.4403 23.1491 91.5987 23.3303 90.7891 23.6925C89.9794 24.0547 89.3029 24.6246 88.7596 25.4023C88.2163 26.18 87.902 27.1974 87.8168 28.4545H83.7898C83.875 26.6435 84.3438 25.0934 85.196 23.8043C86.0589 22.5153 87.1935 21.5298 88.5998 20.848C90.0167 20.1662 91.5881 19.8253 93.3139 19.8253C95.1889 19.8253 96.8189 20.1982 98.2038 20.9439C99.5994 21.6896 100.675 22.7124 101.432 24.0121C102.199 25.3118 102.582 26.7926 102.582 28.4545C102.582 29.6264 102.401 30.6864 102.039 31.6346C101.688 32.5827 101.176 33.4297 100.505 34.1754C99.8445 34.9212 99.0455 35.5817 98.108 36.157C97.1705 36.7429 96.4194 37.3608 95.8548 38.0107C95.2901 38.6499 94.88 39.4116 94.6243 40.2958C94.3686 41.18 94.2301 42.2827 94.2088 43.6037V43.7955H90.3736ZM92.419 53.2557C91.6307 53.2557 90.9542 52.9734 90.3896 52.4087C89.8249 51.8441 89.5426 51.1676 89.5426 50.3793C89.5426 49.5909 89.8249 48.9144 90.3896 48.3498C90.9542 47.7852 91.6307 47.5028 92.419 47.5028C93.2074 47.5028 93.8839 47.7852 94.4485 48.3498C95.0131 48.9144 95.2955 49.5909 95.2955 50.3793C95.2955 50.9013 95.1623 51.3807 94.896 51.8175C94.6403 52.2543 94.294 52.6058 93.8572 52.8722C93.4311 53.1278 92.9517 53.2557 92.419 53.2557Z" fill="#414242" fill-opacity="0.2"/>
</svg>
